<svg width="84" height="24" viewBox="0 0 84 24" fill="none" xmlns="http://www.w3.org/2000/svg">
<path fill-rule="evenodd" clip-rule="evenodd" d="M13.5461 0C13.6897 1.28877 13.1634 2.58364 12.3833 3.51395V3.51456C11.6031 4.44182 10.3215 5.16789 9.07077 5.07157C8.89245 3.80718 9.53328 2.49037 10.2546 1.66858C11.0608 0.737661 12.4217 0.0457228 13.5461 0ZM17.5979 7.51047C17.3839 7.63993 15.1698 8.97913 15.1948 11.6891C15.2255 15.0122 18.1537 16.1207 18.1935 16.1358L18.1937 16.1359L18.1882 16.1532C18.1295 16.3407 17.6785 17.7811 16.648 19.2656C15.716 20.6055 14.7506 21.9403 13.228 21.9706C12.4981 21.9842 12.0095 21.7758 11.5014 21.559C10.9693 21.332 10.4157 21.0959 9.54103 21.0959C8.62504 21.0959 8.04648 21.3389 7.48884 21.5731C7.00546 21.7762 6.5378 21.9726 5.87971 21.9984C4.40851 22.054 3.29162 20.5498 2.3519 19.215C0.43138 16.4822 -1.03469 11.4944 0.934619 8.13209C1.91285 6.45853 3.66135 5.40181 5.55877 5.374C6.37688 5.35823 7.16859 5.66753 7.86182 5.93835C8.39128 6.1452 8.86329 6.3296 9.24576 6.3296C9.58894 6.3296 10.0488 6.15098 10.5848 5.94278C11.4283 5.61515 12.4604 5.21425 13.5233 5.32091C14.2525 5.35124 16.2962 5.6091 17.6108 7.50261L17.5979 7.51047ZM25.0517 14.4269L23.7514 18.2871H22.0945L26.3284 6.01512H28.2694L32.5212 18.2871H30.8L29.4675 14.4269H25.0517ZM29.1394 13.1881L27.9196 9.65648C27.6616 8.91077 27.4839 8.22835 27.3114 7.56556L27.2726 7.41668H27.2367L26.6082 9.6449L25.3885 13.1942L29.1394 13.1881ZM33.7062 9.4741L33.7805 12.3516L33.7793 21.8985H35.3891V17.1043H35.425C35.9618 17.9761 36.9964 18.487 38.1803 18.487C40.2891 18.487 42.2482 16.922 42.2482 13.7544C42.2482 11.0774 40.6235 9.27475 38.4589 9.27475C36.9977 9.27475 35.9426 9.91182 35.2776 10.986H35.2417L35.1674 9.4741H33.7062ZM35.4622 15.3547C35.4238 15.1547 35.3878 14.9438 35.3878 14.6999H35.3959V13.188C35.4009 12.9657 35.438 12.7453 35.5061 12.5333C35.8219 11.3329 36.8516 10.5489 37.966 10.5489C39.6861 10.5489 40.6284 12.0571 40.6284 13.8251C40.6284 15.8479 39.6242 17.2305 37.9041 17.2305C36.7376 17.2305 35.7575 16.4642 35.4622 15.3547ZM43.8561 9.4741L43.9304 12.3516L43.9292 21.8985H45.539V17.1043H45.5749C46.1118 17.9761 47.1464 18.487 48.3302 18.487C50.4391 18.487 52.3981 16.922 52.3981 13.7544C52.3981 11.0774 50.7734 9.27475 48.6088 9.27475C47.1476 9.27475 46.0926 9.91182 45.4276 10.986H45.3917L45.3174 9.4741H43.8561ZM45.6146 15.3547C45.5762 15.1547 45.5403 14.9438 45.5403 14.6999H45.5483V13.188C45.5533 12.9657 45.5904 12.7453 45.6585 12.5333C45.9743 11.3329 47.004 10.5489 48.1185 10.5489C49.8385 10.5489 50.7809 12.0571 50.7809 13.8251C50.7809 15.8479 49.7766 17.2305 48.0565 17.2305C46.89 17.2305 45.9099 16.4642 45.6146 15.3547ZM55.7106 5.36149H54.0822V18.2876H55.7106V5.36149ZM62.049 17.2311C60.4237 17.2311 59.017 16.3386 58.9811 14.172L65.26 14.1671C65.286 14.0031 65.3219 13.7507 65.3219 13.4215C65.3219 11.806 64.5479 9.27597 61.6255 9.27597C59.017 9.27597 57.4276 11.3719 57.4276 14.0287C57.4276 16.6855 59.0733 18.4705 61.8286 18.4705C63.2564 18.4705 64.2316 18.1803 64.8043 17.9243L64.5269 16.7763C63.9158 17.0312 63.2149 17.2311 62.049 17.2311ZM61.4949 10.4209C63.3257 10.4209 63.7703 12.0059 63.7517 13.024H58.9996C59.1278 11.9145 59.8491 10.4209 61.4949 10.4209Z" fill="black"/>
</svg>
