<svg width="9" height="14" viewBox="0 0 9 14" fill="none" xmlns="http://www.w3.org/2000/svg">
<path d="M6.6522 0.649103C7.07491 0.228183 7.76026 0.228183 8.18297 0.649103C8.60568 1.07002 8.60568 1.75247 8.18297 2.17339L3.33568 7.00014L8.18285 11.8268C8.60556 12.2477 8.60556 12.9301 8.18285 13.3511C7.76014 13.772 7.07479 13.772 6.65208 13.3511L1.05529 7.77798C1.04994 7.77287 1.04464 7.76769 1.03937 7.76244C0.900666 7.62433 0.807475 7.45805 0.759797 7.2821C0.758626 7.27778 0.757483 7.27346 0.756367 7.26912C0.664242 6.91211 0.758533 6.51725 1.03925 6.23772C1.0462 6.2308 1.05321 6.224 1.0603 6.21731L6.6522 0.649103Z" fill="#DCDDE3"/>
</svg>
