<svg width="9" height="14" viewBox="0 0 9 14" fill="none" xmlns="http://www.w3.org/2000/svg">
<path d="M2.3478 0.649103C1.92509 0.228183 1.23974 0.228183 0.817033 0.649103C0.394322 1.07002 0.394322 1.75247 0.817033 2.17339L5.66432 7.00014L0.817151 11.8268C0.39444 12.2477 0.39444 12.9301 0.817151 13.3511C1.23986 13.772 1.92521 13.772 2.34792 13.3511L7.94471 7.77798C7.95006 7.77287 7.95536 7.76769 7.96063 7.76244C8.09933 7.62433 8.19252 7.45805 8.2402 7.2821C8.24137 7.27778 8.24252 7.27346 8.24363 7.26912C8.33576 6.91211 8.24147 6.51725 7.96075 6.23772C7.9538 6.2308 7.94679 6.224 7.9397 6.21731L2.3478 0.649103Z" fill="#DCDDE3"/>
</svg>
