<svg width="84" height="24" viewBox="0 0 84 24" fill="none" xmlns="http://www.w3.org/2000/svg">
<path d="M4.06737 24C6.30996 24 8.13046 22.2084 8.13046 20.0014V16.0028H4.06737C1.82478 16.0028 0.00427246 17.7944 0.00427246 20.0014C0.00427246 22.2084 1.82478 24 4.06737 24Z" fill="#0ACF83"/>
<path d="M0 12.0002C0 9.79326 1.82051 8.00165 4.0631 8.00165H8.12619V16.003H4.0631C1.82051 16.003 0 14.2114 0 12.0044V12.0002Z" fill="#A259FF"/>
<path d="M0 3.9986C0 1.79161 1.82051 0 4.0631 0H8.12619V8.0014H4.0631C1.82051 8.0014 0 6.20979 0 4.0028V3.9986Z" fill="#F24E1E"/>
<path d="M8.09204 0H12.1551C14.3977 0 16.2182 1.79161 16.2182 3.9986C16.2182 6.20559 14.3977 7.9972 12.1551 7.9972H8.09204V0Z" fill="#FF7262"/>
<path d="M16.2609 12.0002C16.2609 14.2072 14.4404 15.9989 12.1978 15.9989C9.95518 15.9989 8.09204 14.2072 8.09204 12.0002C8.09204 9.79326 9.91255 8.00165 12.1551 8.00165C14.3977 8.00165 16.2182 9.79326 16.2182 12.0002H16.2609Z" fill="#1ABCFE"/>
<path d="M24 5V15.1545H25.3472V10.3059H28.5868V9.04552H25.3472V6.27058H29.5566V5H24ZM31.9941 7.06342C32.4816 7.06342 32.8748 6.68225 32.8748 6.20959C32.8748 5.73694 32.4764 5.40659 31.9941 5.40659C31.5119 5.40659 31.1135 5.78776 31.1135 6.26042C31.1135 6.48912 31.2078 6.70258 31.3756 6.87029C31.5433 7.03801 31.7635 7.12441 32.0046 7.12441L31.9941 7.06342ZM31.3127 8.34416V15.1545H32.6075V8.34416H31.2707H31.3127ZM37.666 8.14087C35.8733 8.14087 34.6256 9.66557 34.6256 11.3529C34.6256 13.0402 35.8837 14.5548 37.666 14.5548C38.0369 14.5611 38.4051 14.4925 38.7471 14.3533C39.0891 14.2142 39.3976 14.0076 39.6528 13.7467V14.6513C39.649 15.1949 39.4316 15.7165 39.0447 16.1099C38.8493 16.3033 38.616 16.4568 38.3585 16.5615C38.1011 16.6662 37.8247 16.7201 37.5455 16.7198C37.1168 16.7067 36.7014 16.5724 36.3503 16.3336L35.6688 17.4669C36.1922 17.7932 36.7966 17.9767 37.4184 17.9979C38.0402 18.0192 38.6565 17.8774 39.2022 17.5877C39.7479 17.2979 40.2029 16.8708 40.5193 16.3513C40.8357 15.8319 41.0018 15.2393 41 14.6361V8.334H39.6528V8.94388C39.3976 8.68293 39.0891 8.47633 38.7471 8.33721C38.4051 8.19809 38.0369 8.1295 37.666 8.13579V8.14087ZM35.9781 11.3529C35.9474 11.0225 36.0126 10.6903 36.1664 10.3939C36.3202 10.0976 36.5563 9.8488 36.8483 9.67573C37.4459 9.31997 38.1955 9.31997 38.7878 9.67573C39.3802 10.0315 39.7157 10.682 39.658 11.3529C39.6887 11.6833 39.6235 12.0155 39.4697 12.3118C39.316 12.6082 39.0798 12.857 38.7878 13.0301C38.1902 13.3858 37.4406 13.3858 36.8483 13.0301C36.2559 12.6743 35.9204 12.0238 35.9781 11.3529Z" fill="black"/>
<path d="M45.9155 9.30957C45.5135 9.31089 45.1283 9.45817 44.844 9.71928C44.5597 9.98039 44.3994 10.3342 44.3979 10.7034V14.9399H43V8.24545H44.3979V8.80999C44.8222 8.29041 45.4967 7.99066 46.2038 8.00065C47.0959 7.98067 47.9281 8.42031 48.3687 9.13472C48.9127 8.4353 49.696 8.01065 50.5445 8.00065C52.1383 8.00065 53.1283 9.17968 53.1337 10.6385V14.9H51.7358V10.6535C51.7767 10.3889 51.7344 10.1192 51.6137 9.87607C51.493 9.63296 51.299 9.42669 51.0547 9.28165C50.8103 9.13661 50.5259 9.05887 50.235 9.05762C49.9441 9.05637 49.6589 9.13167 49.4131 9.2746C49.1687 9.42096 48.9752 9.62871 48.8556 9.87315C48.736 10.1176 48.6954 10.3884 48.7386 10.6535V14.89H47.3951V10.6585C47.3936 10.2892 47.2333 9.93543 46.949 9.67432C46.6647 9.4132 46.2795 9.26593 45.8775 9.26461L45.9155 9.30957ZM60.6021 8.95986C60.2839 8.65491 59.9011 8.41295 59.4774 8.24886C59.0537 8.08476 58.5978 8.002 58.138 8.00565C56.0547 8.00565 54.6023 9.62431 54.6023 11.5028C54.6023 13.3812 56.071 14.9999 58.138 14.9999C58.5978 15.0035 59.0537 14.9208 59.4774 14.7567C59.9011 14.5926 60.2839 14.3506 60.6021 14.0457V14.805H62V8.11056H60.6021V8.95986ZM55.9785 11.5577C55.9078 10.7584 56.3321 9.98901 57.0773 9.56936C57.8225 9.14971 58.7091 9.14971 59.5033 9.56936C59.867 9.7767 60.1618 10.0717 60.3556 10.4224C60.5493 10.773 60.6346 11.1657 60.6021 11.5577C60.6728 12.3571 60.2485 13.1264 59.5033 13.5461C58.7581 13.9657 57.8715 13.9657 57.0773 13.5461C56.7136 13.3387 56.4188 13.0437 56.225 12.6931C56.0313 12.3425 55.946 11.9498 55.9785 11.5577Z" fill="black"/>
</svg>
