<svg width="84" height="24" viewBox="0 0 84 24" fill="none" xmlns="http://www.w3.org/2000/svg">
<path d="M4.32558 0.0816798C2.60793 0.807178 0.720641 2.85564 0.116284 5.41623C-0.636511 8.6703 2.5019 10.0466 2.76697 9.59851C3.07445 9.06506 2.20503 8.89435 2.02478 7.19797C1.79152 5.02147 2.79878 2.57825 4.07111 1.51134C4.30437 1.30863 4.29377 1.58602 4.29377 2.09814C4.29377 3.01568 4.24075 11.2202 4.24075 12.9273C4.24075 15.2425 4.14533 15.9786 3.97568 16.7041C3.80604 17.4403 3.51977 17.9311 3.73182 18.1231C3.96508 18.3365 4.97234 17.8244 5.55549 17.0135C6.25528 16.032 6.49914 14.8584 6.54155 13.5781C6.59456 12.0311 6.59456 9.58784 6.59456 8.19019C6.59456 6.9099 6.61577 3.16505 6.57336 0.91387C6.56275 0.359077 5.03596 -0.217055 4.32558 0.0816798ZM65.355 10.9322C65.302 12.1378 65.0369 13.0766 64.7082 13.7381C64.0721 15.0291 62.7467 15.4238 62.1848 13.5781C61.8773 12.5752 61.8667 10.8895 62.0893 9.48115C62.312 8.05149 62.9376 6.96325 63.9766 7.05927C64.9839 7.15529 65.461 8.47826 65.355 10.9322ZM48.1573 18.4005C48.1467 20.4063 47.8286 22.156 47.1607 22.6682C46.2064 23.3937 44.9235 22.8495 45.1886 21.3879C45.4218 20.0969 46.5351 18.7739 48.1573 17.1629C48.1573 17.1629 48.1573 17.5257 48.1573 18.4005ZM47.8923 10.9108C47.8393 12.0097 47.553 13.1086 47.2455 13.7381C46.6093 15.0291 45.2734 15.4238 44.722 13.5781C44.3403 12.3085 44.4358 10.6761 44.6266 9.64119C44.8705 8.30755 45.4536 7.05927 46.5139 7.05927C47.5318 7.05927 48.0407 8.19019 47.8923 10.9108ZM37.9257 10.9001C37.8621 12.0631 37.6394 13.034 37.2789 13.7381C36.6215 15.0184 35.328 15.4238 34.7555 13.5781C34.342 12.2444 34.4798 10.4307 34.66 9.44915C34.9145 7.99815 35.5507 6.96325 36.5473 7.05927C37.5652 7.16596 38.0529 8.47826 37.9257 10.9001ZM83.5917 12.2551C83.3373 12.2551 83.2312 12.5112 83.1358 12.9486C82.8071 14.4636 82.4678 14.805 82.0225 14.805C81.5242 14.805 81.0789 14.0582 80.9728 12.5539C80.888 11.3696 80.8986 9.20376 81.0153 7.03793C81.0365 6.58983 80.9198 6.1524 79.7323 5.72563C79.2234 5.54426 78.4812 5.26686 78.1101 6.16306C77.071 8.69164 76.6575 10.6974 76.5621 11.519C76.5621 11.5616 76.5091 11.5723 76.4985 11.4763C76.4349 10.8255 76.297 9.64119 76.2864 7.14462C76.2864 6.65384 76.1804 6.24842 75.6503 5.90701C75.3004 5.68296 74.2507 5.29887 73.869 5.75764C73.5403 6.13106 73.1586 7.15529 72.7663 8.3609C72.4482 9.34245 72.2256 10.0039 72.2256 10.0039C72.2256 10.0039 72.2256 7.358 72.2362 6.35511C72.2362 5.97102 71.9817 5.85366 71.8969 5.82165C71.547 5.71496 70.8578 5.54426 70.5609 5.54426C70.2004 5.54426 70.1156 5.74697 70.1156 6.0457C70.1156 6.08838 70.0626 9.5345 70.0626 11.9457C70.0626 12.0524 70.0626 12.1698 70.0626 12.2871C69.8612 13.3967 69.2144 14.9011 68.504 14.9011C67.7936 14.9011 67.4649 14.2716 67.4649 11.4016C67.4649 9.72654 67.518 8.99038 67.5392 7.78477C67.5498 7.09128 67.5816 6.54715 67.5816 6.42979C67.5816 6.05637 66.9348 5.86433 66.6379 5.80032C66.341 5.72563 66.076 5.70429 65.8745 5.71496C65.5882 5.7363 65.3868 5.91768 65.3868 6.1844C65.3868 6.3231 65.3868 6.58983 65.3868 6.58983C65.0157 6.00303 64.422 5.5976 64.019 5.48024C62.9482 5.16017 61.8349 5.44824 60.9973 6.6325C60.3293 7.57139 59.9264 8.63829 59.7673 10.1746C59.6507 11.2949 59.6931 12.4258 59.8946 13.3967C59.6401 14.485 59.1842 14.9224 58.6753 14.9224C57.9437 14.9224 57.4029 13.7168 57.4665 11.6256C57.509 10.2493 57.7846 9.28911 58.0815 7.89146C58.2087 7.29399 58.1027 6.98459 57.8482 6.68585C57.615 6.40845 57.1061 6.26976 56.3745 6.44046C55.8549 6.55782 55.1127 6.69652 54.4342 6.79254C54.4342 6.79254 54.4766 6.6325 54.5084 6.33377C54.6886 4.80809 53.0452 4.93612 52.5151 5.4269C52.197 5.71496 51.9849 6.05637 51.9107 6.67518C51.7835 7.65674 52.5787 8.11551 52.5787 8.11551C52.3242 9.31045 51.6774 10.8788 51.0307 11.9991C50.6808 12.6072 50.4051 13.0553 50.0658 13.5247C50.0658 13.3434 50.0658 13.1727 50.0658 12.9913C50.0552 10.4734 50.087 8.4996 50.1082 7.78477C50.1188 7.09128 50.1507 6.56849 50.1507 6.44046C50.1507 6.16306 49.9916 6.06704 49.6629 5.93901C49.3766 5.82165 49.0268 5.74697 48.6663 5.71496C48.2103 5.68296 47.9453 5.91768 47.9453 6.20574C47.9453 6.25909 47.9453 6.58983 47.9453 6.58983C47.5742 6.00303 46.9804 5.5976 46.5775 5.48024C45.5066 5.16017 44.3934 5.44824 43.5557 6.6325C42.8878 7.57139 42.4531 8.89435 42.3258 10.164C42.2092 11.3482 42.2304 12.3511 42.3894 13.194C42.2198 14.0369 41.7321 14.9224 41.1807 14.9224C40.4703 14.9224 40.0674 14.2929 40.0674 11.4229C40.0674 9.74788 40.1205 9.01171 40.1417 7.80611C40.1523 7.11261 40.1841 6.56849 40.1841 6.45113C40.1841 6.07771 39.5373 5.88567 39.2404 5.82165C38.9329 5.74697 38.6573 5.72563 38.4558 5.7363C38.1801 5.75764 37.9893 6.00303 37.9893 6.1844V6.61117C37.6182 6.02437 37.0244 5.61894 36.6215 5.50158C35.5507 5.18151 34.4374 5.46957 33.5998 6.65384C33.0484 7.42202 32.6031 8.27555 32.3698 10.164C32.3062 10.7081 32.2744 11.2202 32.2744 11.7003C32.0518 13.0553 31.0763 14.6237 30.2811 14.6237C29.8146 14.6237 29.3693 13.7168 29.3693 11.775C29.3693 9.19309 29.5283 5.51225 29.5601 5.16017C29.5601 5.16017 30.5674 5.13883 30.7582 5.13883C31.2566 5.12816 31.7125 5.1495 32.3804 5.10682C32.7197 5.08549 33.0378 3.87988 32.6879 3.73051C32.5289 3.6665 31.4262 3.60248 30.9809 3.59181C30.6098 3.58114 29.5813 3.50646 29.5813 3.50646C29.5813 3.50646 29.6767 1.06324 29.698 0.807179C29.7192 0.593797 29.4435 0.476437 29.2844 0.412422C28.9027 0.252386 28.5529 0.167033 28.1499 0.0816798C27.588 -0.0356803 27.3335 0.0816798 27.2805 0.561789C27.2063 1.28729 27.1639 3.42111 27.1639 3.42111C26.7504 3.42111 25.3296 3.33575 24.9161 3.33575C24.5344 3.33575 24.1103 5.00013 24.651 5.02147C25.266 5.04281 26.3263 5.06415 27.0367 5.08549C27.0367 5.08549 27.0049 8.81967 27.0049 9.9826C27.0049 10.1106 27.0049 10.228 27.0049 10.3347C26.6126 12.3725 25.2448 13.4821 25.2448 13.4821C25.5417 12.1271 24.9373 11.1135 23.8558 10.26C23.4529 9.93992 22.6683 9.34245 21.7883 8.69164C21.7883 8.69164 22.2972 8.19019 22.7532 7.16596C23.0712 6.44046 23.0924 5.61894 22.2972 5.43757C20.9931 5.13883 19.9222 6.09905 19.6041 7.12328C19.3603 7.92346 19.4875 8.51027 19.9752 9.1184C20.007 9.16108 20.0494 9.20376 20.0919 9.2571C19.795 9.82257 19.3921 10.5907 19.0528 11.1882C18.0985 12.8419 17.3882 14.1435 16.8474 14.1435C16.4127 14.1435 16.4233 12.8206 16.4233 11.5723C16.4233 10.5054 16.4975 8.89435 16.5611 7.21931C16.5824 6.66451 16.3067 6.35511 15.8508 6.06704C15.5751 5.89634 14.9813 5.55493 14.6314 5.55493C14.1119 5.55493 12.6275 5.62961 11.2174 9.72654C11.0371 10.2387 10.6872 11.1882 10.6872 11.1882L10.719 6.25909C10.719 6.14173 10.6554 6.03504 10.5176 5.96035C10.2843 5.83232 9.64815 5.5656 9.08621 5.5656C8.82114 5.5656 8.6833 5.69362 8.6833 5.93901L8.63029 13.6421C8.63029 14.2289 8.64089 14.9117 8.70451 15.2105C8.75752 15.5092 8.85295 15.7546 8.96958 15.8933C9.08621 16.0426 9.21344 16.1493 9.4361 16.192C9.63755 16.2347 10.7614 16.3734 10.8145 15.9466C10.8887 15.4345 10.8887 14.8797 11.4718 12.7992C12.3837 9.56651 13.5712 7.98748 14.1331 7.43269C14.2285 7.33666 14.3452 7.326 14.3346 7.48603C14.3134 8.19019 14.2285 9.96126 14.1649 11.4656C14.0165 15.4879 14.7375 16.2347 15.7765 16.2347C16.5717 16.2347 17.6956 15.4345 18.8937 13.4287C19.6465 12.1698 20.3675 10.9428 20.8977 10.0573C21.2582 10.3987 21.6717 10.7614 22.0746 11.1562C23.0288 12.0631 23.3363 12.9273 23.1242 13.7381C22.9652 14.3676 22.3715 15.0077 21.3112 14.3783C21.0037 14.1969 20.8659 14.0582 20.5584 13.8448C20.3887 13.7381 20.1343 13.7061 19.9858 13.8128C19.5935 14.1115 19.3603 14.4956 19.233 14.9757C19.1058 15.4345 19.5617 15.6799 20.0388 15.8933C20.4524 16.0747 21.3324 16.2454 21.8943 16.2667C24.0785 16.3414 25.8386 15.1998 27.0579 12.2658C27.2805 14.7944 28.203 16.2347 29.8252 16.2347C30.9067 16.2347 31.9881 14.8264 32.4653 13.4501C32.6031 14.0155 32.8046 14.5063 33.059 14.9224C34.2995 16.9068 36.717 16.4801 37.9363 14.7944C38.3074 14.2716 38.371 14.0902 38.371 14.0902C38.5512 15.6799 39.8236 16.2347 40.5552 16.2347C41.3716 16.2347 42.2198 15.8506 42.8029 14.5063C42.8772 14.6557 42.9514 14.7944 43.0256 14.9224C44.2661 16.9068 46.6836 16.4801 47.9029 14.7944C47.9559 14.7197 48.0089 14.645 48.0513 14.581L48.0831 15.6266C48.0831 15.6266 47.3939 16.2667 46.9698 16.6615C45.1037 18.3898 43.683 19.7021 43.5769 21.2278C43.4391 23.1696 45.0083 23.8951 46.1958 23.9911C47.4576 24.0871 48.5284 23.3937 49.1964 22.4121C49.7796 21.5479 50.1613 19.6915 50.1294 17.8564C50.1188 17.1202 50.0976 16.192 50.087 15.1891C50.7444 14.4209 51.4866 13.4501 52.1652 12.3191C52.9074 11.0815 53.7026 9.41714 54.1161 8.12618C54.1161 8.12618 54.8053 8.13685 55.5475 8.0835C55.7807 8.07283 55.8549 8.11551 55.8125 8.28621C55.7595 8.4996 54.8795 11.9137 55.6853 14.1862C56.2366 15.7439 57.4772 16.2454 58.2087 16.2454C59.0676 16.2454 59.8946 15.5945 60.3293 14.6237C60.3823 14.7303 60.4353 14.837 60.4989 14.9331C61.7395 16.9175 64.1463 16.4907 65.3762 14.805C65.6519 14.4209 65.8109 14.1009 65.8109 14.1009C66.076 15.7439 67.3483 16.256 68.0799 16.256C68.8433 16.256 69.5643 15.9466 70.1474 14.549C70.1686 15.1571 70.2111 15.6586 70.2747 15.8186C70.3065 15.9146 70.5291 16.032 70.6882 16.096C71.388 16.3521 72.0877 16.2347 72.3528 16.1813C72.5331 16.1493 72.6709 16 72.6921 15.6159C72.7451 14.6237 72.7133 12.9486 73.0102 11.711C73.5085 9.63052 73.9856 8.81967 74.2083 8.41424C74.3355 8.19019 74.4734 8.15819 74.4734 8.39291C74.484 8.87301 74.5052 10.2813 74.7066 12.1804C74.8445 13.5781 75.0459 14.3996 75.1837 14.6557C75.6078 15.4025 76.1168 15.4345 76.5409 15.4345C76.806 15.4345 77.3679 15.3598 77.3149 14.8904C77.2937 14.6557 77.3361 13.226 77.8238 11.1775C78.1525 9.83323 78.6826 8.62763 78.8841 8.17952C78.9583 8.01949 78.9901 8.14752 78.9901 8.16885C78.9477 9.09707 78.8523 12.1164 79.234 13.7595C79.7429 16 81.2061 16.2454 81.715 16.2454C82.8071 16.2454 83.6977 15.4132 83.9946 13.2153C84.0264 12.6605 83.9204 12.2551 83.5917 12.2551Z" fill="#262626"/>
</svg>
