<svg width="84" height="24" viewBox="0 0 84 24" fill="none" xmlns="http://www.w3.org/2000/svg">
<g clip-path="url(#clip0_7363_24659)">
<path d="M3.35899 14.8921C3.35899 15.7544 3.54203 16.4165 3.78127 16.817C4.09494 17.3416 4.56278 17.5639 5.03975 17.5639C5.65494 17.5639 6.21772 17.406 7.30228 15.855C8.17114 14.6118 9.19494 12.8668 9.8838 11.7728L11.0504 9.91937C11.8608 8.6322 12.7987 7.20131 13.8742 6.23141C14.7522 5.43979 15.6992 5 16.6524 5C18.2527 5 19.777 5.9589 20.9435 7.75733C22.2203 9.72696 22.84 12.2079 22.84 14.7681C22.84 16.2901 22.5499 17.4084 22.0562 18.2919C21.5792 19.1463 20.6496 20 19.0858 20V17.5639C20.4248 17.5639 20.759 16.2916 20.759 14.8356C20.759 12.7607 20.2911 10.4581 19.2605 8.81283C18.5291 7.64581 17.5813 6.93272 16.5385 6.93272C15.4106 6.93272 14.503 7.8123 13.483 9.38063C12.9408 10.2139 12.3841 11.2293 11.759 12.3751L11.0709 13.6356C9.68861 16.1699 9.33848 16.7471 8.64734 17.6997C7.43595 19.3678 6.40152 20 5.03975 20C3.4243 20 2.40278 19.2767 1.77013 18.1866C1.25367 17.2984 1 16.133 1 14.805L3.35899 14.8921Z" fill="#0081FB"/>
<path d="M2.85999 7.92932C3.9415 6.2055 5.50226 5 7.29239 5C8.3291 5 9.35973 5.31728 10.4359 6.22592C11.6131 7.21937 12.8678 8.85524 14.4331 11.5513L14.9944 12.5188C16.3493 14.8529 17.1202 16.0537 17.5714 16.6199C18.1516 17.3471 18.558 17.5639 19.0858 17.5639C20.4248 17.5639 20.759 16.2916 20.759 14.8356L22.84 14.7681C22.84 16.2901 22.5499 17.4084 22.0562 18.2919C21.5792 19.1463 20.6496 20 19.0858 20C18.1137 20 17.2524 19.7817 16.3 18.8526C15.5678 18.1395 14.7119 16.8728 14.0534 15.734L12.0947 12.3508C11.1119 10.6529 10.2104 9.38691 9.68859 8.81361C9.12733 8.19712 8.40581 7.45262 7.25442 7.45262C6.32252 7.45262 5.53112 8.1288 4.86885 9.16309L2.85999 7.92932Z" fill="url(#paint0_linear_7363_24659)"/>
<path d="M7.25443 7.45262C6.32253 7.45262 5.53114 8.1288 4.86886 9.16309C3.9324 10.6246 3.35899 12.8016 3.35899 14.8921C3.35899 15.7545 3.54203 16.4165 3.78127 16.817L1.77013 18.1867C1.25367 17.2984 1 16.133 1 14.805C1 12.3901 1.64101 9.87304 2.86 7.92932C3.94152 6.2055 5.50228 5 7.2924 5L7.25443 7.45262Z" fill="url(#paint1_linear_7363_24659)"/>
<path d="M27.4258 5.47437H30.1547L34.7944 14.1539L39.4349 5.47437H42.1045V19.7361H39.8785V8.80578L35.8091 16.3749H33.7205L29.6519 8.80578V19.7361H27.4258V5.47437ZM49.0797 10.7919C47.4833 10.7919 46.5218 12.0343 46.2916 13.5728H51.7099C51.5982 11.988 50.7142 10.7919 49.0797 10.7919ZM44.0845 14.4492C44.0845 11.2121 46.1078 8.85604 49.1185 8.85604C52.0797 8.85604 53.8478 11.1822 53.8478 14.622V15.2542H46.2916C46.5597 16.9278 47.6337 18.0555 49.3653 18.0555C50.7468 18.0555 51.6104 17.6197 52.4291 16.8225L53.6116 18.3202C52.4975 19.3796 51.0802 19.9906 49.2863 19.9906C46.0273 19.9906 44.0845 17.5333 44.0845 14.4492V14.4492ZM56.5471 10.9961H54.498V9.11128H56.5471V5.99426H58.6949V9.11128H61.8081V10.9961H58.6949V15.7733C58.6949 17.4045 59.1992 17.9841 60.4387 17.9841C61.0045 17.9841 61.3288 17.9338 61.8081 17.8513V19.7157C61.2111 19.8901 60.6415 19.9702 60.0248 19.9702C57.7061 19.9702 56.5471 18.6602 56.5471 16.038V10.9961ZM70.8521 12.8291C70.4207 11.7029 69.4585 10.8736 68.0443 10.8736C66.2063 10.8736 65.0299 12.222 65.0299 14.4186C65.0299 16.5602 66.1129 17.9738 67.9562 17.9738C69.4053 17.9738 70.4397 17.1021 70.8521 16.0176V12.8291ZM73 19.7361H70.8916V18.2487C70.3023 19.1244 69.2299 19.9906 67.4929 19.9906C64.6995 19.9906 62.8326 17.5725 62.8326 14.4186C62.8326 11.2348 64.7443 8.85604 67.6114 8.85604C69.0286 8.85604 70.1405 9.4419 70.8916 10.4762V9.11128H73V19.7361Z" fill="#192830"/>
</g>
<defs>
<linearGradient id="paint0_linear_7363_24659" x1="5.6329" y1="14.1885" x2="20.6733" y2="14.9231" gradientUnits="userSpaceOnUse">
<stop stop-color="#0064E1"/>
<stop offset="0.4" stop-color="#0064E1"/>
<stop offset="0.83" stop-color="#0073EE"/>
<stop offset="1" stop-color="#0082FB"/>
</linearGradient>
<linearGradient id="paint1_linear_7363_24659" x1="4.41772" y1="15.9162" x2="4.41772" y2="10.1832" gradientUnits="userSpaceOnUse">
<stop stop-color="#0082FB"/>
<stop offset="1" stop-color="#0064E0"/>
</linearGradient>
<clipPath id="clip0_7363_24659">
<rect width="72" height="15" fill="white" transform="translate(1 5)"/>
</clipPath>
</defs>
</svg>
