<svg width="9" height="15" viewBox="0 0 9 15" fill="none" xmlns="http://www.w3.org/2000/svg">
<path d="M2.26756 0.432117C1.80522 -0.0282645 1.05562 -0.0282646 0.593275 0.432117C0.130935 0.892498 0.130936 1.63892 0.593275 2.09931L5.89499 7.37856L0.593405 12.6577C0.131065 13.1181 0.131065 13.8645 0.593405 14.3249C1.05574 14.7853 1.80535 14.7853 2.26769 14.3249L8.38917 8.22933C8.39502 8.22373 8.40082 8.21807 8.40659 8.21233C8.55829 8.06127 8.66022 7.87941 8.71237 7.68696C8.71365 7.68224 8.7149 7.6775 8.71612 7.67277C8.81688 7.28228 8.71375 6.8504 8.40671 6.54467C8.39912 6.5371 8.39144 6.52966 8.38369 6.52235L2.26756 0.432117Z" fill="#9E9EA7"/>
</svg>
