<svg width="8" height="14" viewBox="0 0 8 14" fill="none" xmlns="http://www.w3.org/2000/svg">
<path d="M1.95889 0.538019C1.53618 0.117099 0.850827 0.117099 0.428117 0.538019C0.00540565 0.958939 0.00540581 1.64139 0.428117 2.06231L5.2754 6.88905L0.428235 11.7157C0.00552388 12.1366 0.00552391 12.8191 0.428235 13.24C0.850946 13.6609 1.5363 13.6609 1.95901 13.24L7.55579 7.6669C7.56114 7.66178 7.56645 7.6566 7.57172 7.65136C7.71042 7.51324 7.80361 7.34697 7.85129 7.17102C7.85246 7.1667 7.8536 7.16237 7.85472 7.15804C7.94684 6.80103 7.85255 6.40616 7.57183 6.12664C7.56489 6.11972 7.55787 6.11292 7.55079 6.10623L1.95889 0.538019Z" fill="black"/>
</svg>
