<svg width="46" height="47" viewBox="0 0 46 47" fill="none" xmlns="http://www.w3.org/2000/svg">
<g clip-path="url(#clip0_1_3219)">
<path d="M35.2961 6.14273C26.4577 6.14273 20.3883 1.56445 16.1294 1.56445C11.8706 1.56445 2.92615 4.01268 2.92615 23.6048C2.92615 43.197 14.959 46.072 19.6433 46.072C41.5789 46.0733 50.9489 6.14273 35.2961 6.14273Z" fill="#EFEFEF"/>
<path d="M4.98938 9.93689L6.79643 8.12984L7.69996 9.03336L5.89291 10.8404L4.98938 9.93689Z" fill="#A4AFC1"/>
<path d="M10.1862 4.74231L11.9932 2.93526L12.8967 3.83878L11.0897 5.64583L10.1862 4.74231Z" fill="#A4AFC1"/>
<path d="M4.99121 4.06482L5.89474 3.16129L7.70179 4.96834L6.79826 5.87187L4.99121 4.06482Z" fill="#A4AFC1"/>
<path d="M15.0139 9.44324H36.0972C36.8025 9.44324 37.375 10.0157 37.375 10.721V25.4155C37.375 26.1208 36.8025 26.6932 36.0972 26.6932H15.0139C14.3085 26.6932 13.7361 26.1208 13.7361 25.4155V10.721C13.7361 10.0157 14.3085 9.44324 15.0139 9.44324Z" fill="#F3F3F1"/>
<path d="M14.0555 15.1932C15.6434 15.1932 16.9305 13.9061 16.9305 12.3182C16.9305 10.7304 15.6434 9.44324 14.0555 9.44324C12.4677 9.44324 11.1805 10.7304 11.1805 12.3182C11.1805 13.9061 12.4677 15.1932 14.0555 15.1932Z" fill="#00CC66"/>
<path d="M8.625 22.221C8.625 20.1038 10.3411 18.3877 12.4583 18.3877H15.6528C17.7701 18.3877 19.4861 20.1038 19.4861 22.221V27.1814C19.4861 27.6656 19.2127 28.1078 18.7795 28.3237L17.6372 28.8949C17.204 29.1108 16.9306 29.5542 16.9306 30.0372V36.9142C16.9306 37.6195 16.3581 38.192 15.6528 38.192H12.4583C11.753 38.192 11.1806 37.6195 11.1806 36.9142V30.0372C11.1806 29.5529 10.9071 29.1108 10.4739 28.8949L9.33161 28.3237C8.89844 28.1078 8.625 27.6644 8.625 27.1814V22.221Z" fill="#00CC66"/>
<path d="M14.0555 12.3182C14.0555 11.2564 14.6369 10.3402 15.493 9.8419C15.0688 9.59529 14.582 9.44324 14.0555 9.44324C12.4673 9.44324 11.1805 10.73 11.1805 12.3182C11.1805 13.9065 12.4673 15.1932 14.0555 15.1932C14.582 15.1932 15.0688 15.0412 15.493 14.7946C14.6369 14.2962 14.0555 13.3801 14.0555 12.3182Z" fill="#00B871"/>
<path d="M14.0556 36.9155V30.0385C14.0556 29.5542 13.7821 29.1121 13.3489 28.8961L12.2066 28.325C11.7734 28.1078 11.5 27.6656 11.5 27.1814V22.221C11.5 20.1038 13.2161 18.3877 15.3333 18.3877H12.4583C10.3411 18.3877 8.625 20.1038 8.625 22.221V27.1814C8.625 27.6656 8.89844 28.1077 9.33161 28.3237L10.4739 28.8949C10.9071 29.1108 11.1806 29.5542 11.1806 30.0372V36.9142C11.1806 37.6195 11.753 38.192 12.4583 38.192H15.3333C14.628 38.1933 14.0556 37.6208 14.0556 36.9155Z" fill="#00B871"/>
<path d="M16.6111 13.6344V18.5155C16.3044 18.4261 15.985 18.3877 15.6528 18.3877H13.7361V15.1805C13.8383 15.1933 13.9533 15.1933 14.0555 15.1933C15.1672 15.1933 16.1255 14.5672 16.6111 13.6344Z" fill="#D5DBE1"/>
<path d="M14.6306 9.50713C14.7456 9.46879 14.8862 9.44324 15.0139 9.44324H17.8889C17.1862 9.44324 16.6112 10.0182 16.6112 10.721V11.0021C16.2151 10.2355 15.4995 9.67324 14.6306 9.50713Z" fill="#D5DBE1"/>
<path d="M14.0555 16.1515C11.9421 16.1515 10.2222 14.4316 10.2222 12.3182C10.2222 10.2048 11.9421 8.48486 14.0555 8.48486C16.1689 8.48486 17.8888 10.2048 17.8888 12.3182C17.8888 14.4316 16.1689 16.1515 14.0555 16.1515ZM14.0555 10.4015C12.9988 10.4015 12.1388 11.2615 12.1388 12.3182C12.1388 13.3749 12.9988 14.2349 14.0555 14.2349C15.1122 14.2349 15.9722 13.3749 15.9722 12.3182C15.9722 11.2615 15.1122 10.4015 14.0555 10.4015Z" fill="black"/>
<path d="M15.6527 39.1515H12.4583C11.2252 39.1515 10.2222 38.1485 10.2222 36.9154V30.0384C10.2222 29.917 10.1545 29.8071 10.0458 29.7522L8.90224 29.181C8.14068 28.8003 7.66663 28.0336 7.66663 27.1813V22.221C7.66663 19.5785 9.81585 17.4293 12.4583 17.4293H15.6527C18.2952 17.4293 20.4444 19.5785 20.4444 22.221V27.1813C20.4444 28.0336 19.9704 28.8003 19.2088 29.181L18.0652 29.7522C17.9566 29.8071 17.8889 29.917 17.8889 30.0384V36.9154C17.8889 38.1485 16.8858 39.1515 15.6527 39.1515ZM12.4583 19.346C10.8726 19.346 9.58329 20.6353 9.58329 22.221V27.1813C9.58329 27.3027 9.65102 27.4126 9.75963 27.4675L10.9032 28.0387C11.6648 28.4195 12.1388 29.1862 12.1388 30.0384V36.9154C12.1388 37.0918 12.282 37.2349 12.4583 37.2349H15.6527C15.8291 37.2349 15.9722 37.0918 15.9722 36.9154V30.0384C15.9722 29.1862 16.4462 28.4195 17.2078 28.0387L18.3514 27.4675C18.46 27.4139 18.5277 27.304 18.5277 27.1813V22.221C18.5277 20.6353 17.2385 19.346 15.6527 19.346H12.4583Z" fill="black"/>
<path d="M28.1112 21.2626C27.8658 21.2626 27.6205 21.1694 27.4339 20.9815L24.9167 18.4643L23.9584 19.4226L22.6027 18.0682L24.2382 16.4326C24.6126 16.0582 25.2196 16.0582 25.5939 16.4326L28.1303 18.969L33.5826 13.8387L34.8962 15.2341L28.7679 21.002C28.5839 21.1757 28.3476 21.2626 28.1112 21.2626Z" fill="black"/>
<path d="M36.0972 27.6515H23V25.7349H36.0972C36.2736 25.7349 36.4167 25.5918 36.4167 25.4154V10.721C36.4167 10.5446 36.2736 10.4015 36.0972 10.4015H20.4445V8.48486H36.0972C37.3303 8.48486 38.3333 9.48792 38.3333 10.721V25.4154C38.3333 26.6485 37.3303 27.6515 36.0972 27.6515Z" fill="black"/>
<path d="M29.5691 33.1524L25.5556 28.2125L21.5421 33.1524L20.0535 31.9436L24.8106 26.0876C25.1748 25.6391 25.9338 25.6391 26.298 26.0876L31.0551 31.9436L29.5691 33.1524Z" fill="black"/>
<path d="M2.55554 37.2349H43.4444V39.1515H2.55554V37.2349Z" fill="black"/>
</g>
<defs>
<clipPath id="clip0_1_3219">
<rect width="46" height="46" fill="white" transform="translate(0 0.818237)"/>
</clipPath>
</defs>
</svg>
