<svg width="46" height="47" viewBox="0 0 46 47" fill="none" xmlns="http://www.w3.org/2000/svg">
<path d="M10.7039 41.2816C19.5423 41.2816 25.6118 45.8599 29.8706 45.8599C34.1294 45.8599 43.0739 43.4117 43.0739 23.8195C43.0739 4.22735 31.041 1.35107 26.3567 1.35107C4.4211 1.35107 -4.94885 41.2816 10.7039 41.2816Z" fill="#EFEFEF"/>
<path d="M34.0209 4.75891H35.2986V7.31447H34.0209V4.75891Z" fill="#A4AFC1"/>
<path d="M36.8959 8.59216H39.4514V9.86994H36.8959V8.59216Z" fill="#A4AFC1"/>
<path d="M8.9445 44.6894C7.88778 44.6894 7.02783 43.8295 7.02783 42.7728C7.02783 41.716 7.88778 40.8561 8.9445 40.8561C10.0012 40.8561 10.8612 41.716 10.8612 42.7728C10.8612 43.8295 10.0012 44.6894 8.9445 44.6894ZM8.9445 42.1339C8.59183 42.1339 8.30561 42.4214 8.30561 42.7728C8.30561 43.1241 8.59183 43.4116 8.9445 43.4116C9.29717 43.4116 9.58339 43.1241 9.58339 42.7728C9.58339 42.4214 9.29717 42.1339 8.9445 42.1339Z" fill="#A4AFC1"/>
<path d="M23 9.23108C22.9872 9.23108 22.9617 9.23108 22.9489 9.23108C17.1094 9.23108 12.3561 13.9972 12.3561 19.8622H12.3689C12.3689 20.7566 12.1133 21.6255 11.6406 22.3794L8.72722 27.4394C8.66333 27.5289 8.625 27.6439 8.625 27.7716C8.625 28.1166 8.89333 28.3977 9.25111 28.3977H12.4583V32.2694C12.4583 33.3044 13.2889 34.1477 14.3239 34.1477C14.5156 34.1477 14.6944 34.1222 14.8733 34.0583L18.8472 32.985V37.9811H23V9.23108Z" fill="#00CC66"/>
<path d="M34.1167 25.4205C34.2061 24.8327 34.2444 24.2194 34.2444 23.6061C34.2444 22.9927 34.2061 22.3794 34.1167 21.7916L36.2761 19.8111C36.6978 19.4022 36.8 18.7633 36.5061 18.2522L34.385 14.585C34.1039 14.0739 33.4906 13.8439 32.9283 14.0227L30.1172 14.9044C29.1844 14.1377 28.1367 13.5244 26.9867 13.09L26.335 10.2022C26.2072 9.63997 25.7089 9.23108 25.1211 9.23108H23V17.5366C26.3516 17.5366 29.0694 20.2545 29.0694 23.6061C29.0694 26.9577 26.3516 29.6755 23 29.6755V37.9811H25.1211C25.7089 37.9811 26.2072 37.5722 26.335 37.01L26.9867 34.1222C28.1367 33.6877 29.1844 33.0744 30.1172 32.3077L32.9283 33.1894C33.4906 33.3683 34.1039 33.1383 34.385 32.6272L36.5061 28.96C36.8 28.4489 36.6978 27.81 36.2761 27.4011L34.1167 25.4205Z" fill="#F3F3F1"/>
<path d="M11.5 27.7716C11.5 27.6439 11.5383 27.5289 11.6022 27.4394L14.5156 22.3794C14.9883 21.6255 15.2439 20.7566 15.2439 19.8622H15.2311C15.2311 14.9811 18.5291 10.8705 23 9.62591V9.23108C22.9872 9.23108 22.9617 9.23108 22.9489 9.23108C17.1094 9.23108 12.3561 13.9972 12.3561 19.8622H12.3689C12.3689 20.7566 12.1133 21.6255 11.6406 22.3794L8.72722 27.4394C8.66333 27.5289 8.625 27.6439 8.625 27.7716C8.625 28.1166 8.89333 28.3978 9.25111 28.3978H12.1261C11.7683 28.3978 11.5 28.1166 11.5 27.7716Z" fill="#00B871"/>
<path d="M18.8472 33.7619V37.9811H21.7222V32.985L18.8472 33.7619Z" fill="#00B871"/>
<path d="M15.3334 32.2694V28.3977H12.4584V32.2694C12.4584 33.3044 13.2889 34.1477 14.3239 34.1477C14.5156 34.1477 14.6945 34.1221 14.8734 34.0583L16.0502 33.7401C15.6158 33.3964 15.3334 32.8674 15.3334 32.2694Z" fill="#00B871"/>
<path d="M32.9922 14.9044L34.3096 14.4917C34.0067 14.0547 33.4509 13.8567 32.9283 14.0228L32.099 14.2834C32.4006 14.4853 32.7111 14.6731 32.9922 14.9044Z" fill="#D5DBE1"/>
<path d="M25.875 29.6755C29.2266 29.6755 31.9445 26.9577 31.9445 23.6061C31.9445 20.2545 29.2266 17.5366 25.875 17.5366V9.49175C25.6642 9.33075 25.4048 9.23108 25.1211 9.23108H23V17.5366C26.3516 17.5366 29.0695 20.2545 29.0695 23.6061C29.0695 26.9577 26.3516 29.6755 23 29.6755V37.9811H25.1211C25.4048 37.9811 25.6642 37.8827 25.875 37.7204V29.6755Z" fill="#D5DBE1"/>
<path d="M32.9922 32.3077C32.7111 32.539 32.3993 32.7269 32.099 32.9287L32.9283 33.1894C33.4509 33.3555 34.0054 33.1575 34.3096 32.7205L32.9922 32.3077Z" fill="#D5DBE1"/>
<path d="M23 38.9394H18.8472C18.3182 38.9394 17.8888 38.51 17.8888 37.981V34.2359L15.1225 34.9821C14.927 35.0575 14.6407 35.106 14.3238 35.106C12.7662 35.106 11.5 33.8334 11.5 32.2694V29.356H9.25107C8.37707 29.356 7.66663 28.6443 7.66663 27.7716C7.66663 27.447 7.76374 27.1391 7.94774 26.8823L10.81 21.9028C11.1831 21.306 11.3837 20.662 11.408 20.004C11.4016 19.958 11.3977 19.9094 11.3977 19.8621C11.3977 17.2516 12.2551 14.7766 13.8753 12.7028L15.3857 13.8834C14.0619 15.5765 13.3476 17.589 13.3157 19.7126C13.3233 19.7612 13.3272 19.811 13.3272 19.8621C13.3272 20.9291 13.0243 21.9756 12.4519 22.8879L9.83246 27.4394H12.4583C12.9873 27.4394 13.4166 27.8687 13.4166 28.3977V32.2694C13.4166 32.7754 13.823 33.1894 14.3238 33.1894C14.4158 33.1894 14.4848 33.1791 14.5475 33.1574L18.598 32.0611C18.8855 31.9819 19.1922 32.0419 19.4298 32.2246C19.6662 32.4074 19.8055 32.6872 19.8055 32.9862V37.024H22.0416V10.2341C20.1965 10.4091 18.4868 11.0928 17.0212 12.2351L15.8418 10.7222C17.8991 9.11987 20.3562 8.27271 22.9488 8.27271C23.4778 8.27271 23.9583 8.70204 23.9583 9.23104V37.981C23.9583 38.51 23.529 38.9394 23 38.9394ZM9.55901 27.9147L9.55774 27.9173V27.9185C9.55774 27.9185 9.55774 27.9173 9.55901 27.9147Z" fill="black"/>
<path d="M25.1211 38.9394H23V37.0227H25.1211C25.2553 37.0227 25.3703 36.9307 25.3997 36.7965L26.0513 33.9113C26.1216 33.597 26.3452 33.3401 26.6468 33.2264C27.6843 32.8329 28.6465 32.2745 29.5077 31.5666C29.7582 31.3596 30.0942 31.297 30.4035 31.3915L33.2146 32.2732C33.3475 32.3179 33.4855 32.2694 33.5442 32.1633L35.6743 28.4782C35.7458 28.3543 35.7203 28.1958 35.6066 28.0859L33.4676 26.1245C33.2325 25.9086 33.12 25.5904 33.1673 25.2748C33.2452 24.7663 33.2836 24.2028 33.2836 23.6035C33.2836 23.0042 33.244 22.442 33.1673 21.9321C33.12 21.6165 33.2325 21.2984 33.4676 21.0824L35.627 19.1019C35.7203 19.0111 35.7458 18.8527 35.673 18.7262L33.5532 15.0628C33.4855 14.9376 33.3475 14.8929 33.2158 14.9325L30.4009 15.8154C30.0917 15.91 29.7556 15.8474 29.5052 15.6404C28.6439 14.9325 27.6818 14.3741 26.6442 13.9805C26.3439 13.8668 26.1191 13.61 26.0488 13.2956L25.3971 10.4079C25.3703 10.2814 25.2553 10.1894 25.1211 10.1894H23V8.27271H25.1211C26.1561 8.27271 27.0391 8.97932 27.2691 9.98876L27.8108 12.3897C28.6989 12.7705 29.5371 13.2573 30.3127 13.84L32.6421 13.1091C33.6401 12.7922 34.7275 13.219 35.2258 14.1249L37.3367 17.7717C37.8465 18.6598 37.6842 19.7804 36.9444 20.4998L35.1312 22.1634C35.1798 22.6209 35.2041 23.1039 35.2041 23.6073C35.2041 24.1108 35.1798 24.5925 35.1312 25.0512L36.9252 26.6957C37.6855 27.433 37.8465 28.5536 37.338 29.4391L35.2156 33.1076C34.7275 33.9931 33.6413 34.4224 32.6383 34.103L30.3127 33.3734C29.5384 33.956 28.7002 34.4429 27.8108 34.8236L27.2691 37.222C27.0391 38.2328 26.1561 38.9394 25.1211 38.9394Z" fill="black"/>
<path d="M23 30.6338V28.7171C25.8188 28.7171 28.1111 26.4248 28.1111 23.606C28.1111 20.7872 25.8188 18.4949 23 18.4949V16.5782C26.8755 16.5782 30.0278 19.7318 30.0278 23.606C30.0278 27.4802 26.8755 30.6338 23 30.6338Z" fill="black"/>
<path d="M2.55554 37.0227H43.4444V38.9394H2.55554V37.0227Z" fill="black"/>
</svg>
