<svg width="46" height="47" viewBox="0 0 46 47" fill="none" xmlns="http://www.w3.org/2000/svg">
<g clip-path="url(#clip0_1_3183)">
<path d="M35.2961 41.4938C26.4577 41.4938 20.3883 46.0721 16.1294 46.0721C11.8706 46.0721 2.92615 43.6238 2.92615 24.0317C2.92615 4.43951 14.959 1.56323 19.6433 1.56323C41.5789 1.56323 50.9489 41.4938 35.2961 41.4938Z" fill="#EFEFEF"/>
<path d="M18.5278 8.48495C17.471 8.48495 16.6111 7.625 16.6111 6.56828C16.6111 5.51156 17.471 4.65161 18.5278 4.65161C19.5845 4.65161 20.4444 5.51156 20.4444 6.56828C20.4444 7.625 19.5845 8.48495 18.5278 8.48495ZM18.5278 5.92939C18.1751 5.92939 17.8889 6.21561 17.8889 6.56828C17.8889 6.92095 18.1751 7.20717 18.5278 7.20717C18.8804 7.20717 19.1666 6.92095 19.1666 6.56828C19.1666 6.21561 18.8804 5.92939 18.5278 5.92939Z" fill="#A4AFC1"/>
<path d="M37.375 14.2886C37.375 11.5886 35.1912 9.40489 32.5117 9.4445C29.9766 9.48156 27.8402 11.6321 27.7916 14.194C27.7623 15.7759 28.4816 17.1878 29.6163 18.0925C30.2986 18.6368 30.7395 19.4278 30.7395 20.3056V21.8964C30.7395 22.5315 31.0691 22.8612 31.4768 22.8612H33.6886C34.0962 22.8612 34.4259 22.5277 34.4259 22.1162V20.4308C34.4259 19.4878 34.8948 18.6356 35.6167 18.0388C36.6901 17.1482 37.375 15.8002 37.375 14.2886Z" fill="#00CC66"/>
<path d="M20.8814 37.3652L22.0416 26.0543H11.1805L12.3408 37.3652C12.4072 38.0169 12.9567 38.5127 13.6122 38.5127H19.6113C20.2655 38.5127 20.815 38.0169 20.8814 37.3652Z" fill="#00CC66"/>
<path d="M16.6111 17.7488C17.4933 17.7488 18.2084 17.0337 18.2084 16.1515C18.2084 15.2694 17.4933 14.5543 16.6111 14.5543C15.729 14.5543 15.0139 15.2694 15.0139 16.1515C15.0139 17.0337 15.729 17.7488 16.6111 17.7488Z" fill="#F3F3F1"/>
<path d="M12.4584 22.8599C12.4584 21.8019 13.317 20.9432 14.375 20.9432H18.8473C19.9053 20.9432 20.7639 21.8019 20.7639 22.8599V26.0544H12.4584V22.8599Z" fill="#F3F3F1"/>
<path d="M27.1528 38.1932C27.1528 37.1352 26.2942 36.2765 25.2362 36.2765H23.3195C22.2615 36.2765 21.4028 37.1352 21.4028 38.1932V39.1515H27.1528V38.1932Z" fill="#F3F3F1"/>
<path d="M37.375 38.1932C37.375 37.1352 36.5163 36.2765 35.4583 36.2765H33.5417C32.4837 36.2765 31.625 37.1352 31.625 38.1932V39.1515H37.375V38.1932Z" fill="#F3F3F1"/>
<path d="M33.6158 21.8952V20.3044C33.6158 19.4265 33.1737 18.6356 32.4926 18.0913C31.358 17.1866 30.6386 15.7747 30.668 14.1928C30.7076 12.1062 32.1387 10.3147 34.0349 9.69372C33.5532 9.53783 33.0472 9.43561 32.5131 9.44327C29.978 9.48033 27.8415 11.6308 27.793 14.1928C27.7636 15.7747 28.483 17.1866 29.6176 18.0913C30.3 18.6356 30.7408 19.4265 30.7408 20.3044V21.8952C30.7408 22.5303 31.0705 22.8599 31.4781 22.8599H33.6899C33.8139 22.8599 33.9237 22.8216 34.026 22.7679C33.7845 22.6325 33.6158 22.345 33.6158 21.8952Z" fill="#00B871"/>
<path d="M15.2158 37.3652L14.0555 26.0543H11.1805L12.3408 37.3652C12.4072 38.0169 12.9567 38.5127 13.6121 38.5127H16.4871C15.8316 38.5127 15.2822 38.0169 15.2158 37.3652Z" fill="#00B871"/>
<path d="M17.8889 16.1515C17.8889 15.9088 17.9515 15.6852 18.0486 15.4794C17.7931 14.9364 17.25 14.5543 16.6111 14.5543C15.7295 14.5543 15.0139 15.2699 15.0139 16.1515C15.0139 17.0332 15.7295 17.7488 16.6111 17.7488C17.25 17.7488 17.7931 17.3667 18.0486 16.8237C17.9515 16.6179 17.8889 16.3943 17.8889 16.1515Z" fill="#D5DBE1"/>
<path d="M17.25 20.9432H14.375C13.317 20.9432 12.4584 21.8019 12.4584 22.8599V26.0544H15.3334V22.8599C15.3334 21.8019 16.192 20.9432 17.25 20.9432Z" fill="#D5DBE1"/>
<path d="M25.7153 36.3443C25.5607 36.3047 25.4023 36.2766 25.2362 36.2766H23.3195C22.2615 36.2766 21.4028 37.1353 21.4028 38.1933V39.1516H24.2778V38.1933C24.2778 37.3014 24.8899 36.5577 25.7153 36.3443Z" fill="#D5DBE1"/>
<path d="M35.9375 36.3443C35.7829 36.3047 35.6244 36.2766 35.4583 36.2766H33.5417C32.4837 36.2766 31.625 37.1353 31.625 38.1933V39.1516H34.5V38.1933C34.5 37.3014 35.1121 36.5577 35.9375 36.3443Z" fill="#D5DBE1"/>
<path d="M33.6886 23.8182H31.478C30.6347 23.8182 29.7824 23.1576 29.7824 21.8952V20.3044C29.7824 19.7613 29.5039 19.2272 29.0196 18.84C27.5961 17.7041 26.8001 16.0034 26.8346 14.1736C26.8934 11.0814 29.4349 8.52963 32.499 8.48363C34.0246 8.44146 35.4979 9.04713 36.6006 10.1345C37.7187 11.2372 38.3333 12.7118 38.3333 14.2886C38.3333 16.0327 37.5666 17.6683 36.2288 18.7761C35.6921 19.2208 35.3842 19.8226 35.3842 20.4296V22.115C35.3842 23.0541 34.6239 23.8182 33.6886 23.8182ZM31.6991 21.9016H33.4688V20.4296C33.4688 19.2502 34.0297 18.1091 35.0072 17.299C35.9042 16.5566 36.4179 15.459 36.4179 14.2886C36.4179 13.2293 36.0052 12.239 35.2564 11.5017C34.5217 10.7785 33.5442 10.3428 32.5284 10.4029C30.5197 10.4322 28.7909 12.1764 28.7525 14.2119C28.7282 15.4411 29.2624 16.5822 30.2169 17.3437C31.1599 18.0964 31.7016 19.1761 31.7016 20.3056V21.8965C31.6991 21.8977 31.6991 21.9003 31.6991 21.9016Z" fill="#17161A"/>
<path d="M17.8888 39.1516H12.4583C11.9689 39.1516 11.5574 38.7823 11.5051 38.2967L10.1238 25.5241L12.0289 25.3184L13.3169 37.2349H17.8888V39.1516Z" fill="#17161A"/>
<path d="M7.66663 25.0961H25.5555V27.0127H7.66663V25.0961Z" fill="#17161A"/>
<path d="M16.6111 18.7072C15.2017 18.7072 14.0555 17.561 14.0555 16.1516C14.0555 14.7422 15.2017 13.5961 16.6111 13.5961C18.0205 13.5961 19.1667 14.7422 19.1667 16.1516C19.1667 17.561 18.0205 18.7072 16.6111 18.7072ZM16.6111 15.5127C16.2584 15.5127 15.9722 15.799 15.9722 16.1516C15.9722 16.5043 16.2584 16.7905 16.6111 16.7905C16.9638 16.7905 17.25 16.5043 17.25 16.1516C17.25 15.799 16.9638 15.5127 16.6111 15.5127Z" fill="#17161A"/>
<path d="M21.7222 23.8182H19.8056V22.8599C19.8056 22.3309 19.3762 21.9015 18.8472 21.9015H14.375C13.846 21.9015 13.4167 22.3309 13.4167 22.8599V23.8182H11.5V22.8599C11.5 21.2741 12.7893 19.9849 14.375 19.9849H18.8472C20.433 19.9849 21.7222 21.2741 21.7222 22.8599V23.8182Z" fill="#17161A"/>
<path d="M34.5 34.0405C35.5586 34.0405 36.4167 33.1824 36.4167 32.1238C36.4167 31.0653 35.5586 30.2072 34.5 30.2072C33.4415 30.2072 32.5834 31.0653 32.5834 32.1238C32.5834 33.1824 33.4415 34.0405 34.5 34.0405Z" fill="#17161A"/>
<path d="M38.3333 39.1516H36.4166V38.1932C36.4166 37.6642 35.9873 37.2349 35.4583 37.2349H33.5416C33.0126 37.2349 32.5833 37.6642 32.5833 38.1932V39.1516H30.6666V38.1932C30.6666 36.6075 31.9559 35.3182 33.5416 35.3182H35.4583C37.044 35.3182 38.3333 36.6075 38.3333 38.1932V39.1516Z" fill="#17161A"/>
<path d="M24.2778 34.0405C25.3363 34.0405 26.1944 33.1824 26.1944 32.1238C26.1944 31.0653 25.3363 30.2072 24.2778 30.2072C23.2192 30.2072 22.3611 31.0653 22.3611 32.1238C22.3611 33.1824 23.2192 34.0405 24.2778 34.0405Z" fill="#17161A"/>
<path d="M28.1111 39.1516H26.1945V38.1932C26.1945 37.6642 25.7651 37.2349 25.2361 37.2349H23.3195C22.7905 37.2349 22.3611 37.6642 22.3611 38.1932V39.1516H20.4445V38.1932C20.4445 36.6075 21.7337 35.3182 23.3195 35.3182H25.2361C26.8219 35.3182 28.1111 36.6075 28.1111 38.1932V39.1516Z" fill="#17161A"/>
</g>
<defs>
<clipPath id="clip0_1_3183">
<rect width="46" height="46" fill="white" transform="translate(0 0.818237)"/>
</clipPath>
</defs>
</svg>
