<svg width="46" height="47" viewBox="0 0 46 47" fill="none" xmlns="http://www.w3.org/2000/svg">
<g clip-path="url(#clip0_1_3054)">
<path d="M35.2961 41.6755C26.4577 41.6755 20.3883 46.2538 16.1294 46.2538C11.8706 46.2538 2.92615 43.8056 2.92615 24.2134C2.92615 4.62127 14.959 1.745 19.6433 1.745C41.5789 1.745 50.9489 41.6755 35.2961 41.6755Z" fill="#EFEFEF"/>
<path d="M38.3333 31.0278C37.2766 31.0278 36.4166 30.1679 36.4166 29.1111C36.4166 28.0544 37.2766 27.1945 38.3333 27.1945C39.39 27.1945 40.25 28.0544 40.25 29.1111C40.25 30.1679 39.39 31.0278 38.3333 31.0278ZM38.3333 28.4722C37.9806 28.4722 37.6944 28.7585 37.6944 29.1111C37.6944 29.4638 37.9806 29.75 38.3333 29.75C38.686 29.75 38.9722 29.4638 38.9722 29.1111C38.9722 28.7585 38.686 28.4722 38.3333 28.4722Z" fill="#A4AFC1"/>
<path d="M24.5972 9.625H23.9583C22.9003 9.625 22.0417 10.4837 22.0417 11.5417C22.0417 12.247 21.4692 12.8194 20.7639 12.8194H15.0139C14.3085 12.8194 13.7361 12.247 13.7361 11.5417C13.7361 10.4837 12.8774 9.625 11.8194 9.625H11.1805H24.5972Z" fill="#F3F3F1"/>
<path d="M24.4107 29.2581C23.7156 29.9532 20.125 31.0278 20.125 31.0278C20.125 31.0278 21.2009 27.436 21.8947 26.7422C22.5898 26.047 23.7156 26.047 24.4107 26.7422C25.1058 27.4373 25.1058 28.563 24.4107 29.2581Z" fill="#F3F3F1"/>
<path d="M38.3333 13.4762C38.3384 13.2155 38.2362 12.9651 38.0522 12.7811C37.8682 12.5971 37.6165 12.4961 37.3571 12.5C34.1639 12.56 30.6309 14.1406 28.0089 16.608C25.4597 16.6643 22.6141 16.9083 20.4457 18.6078C20.2297 18.7777 20.0969 19.032 20.0802 19.3054C20.0636 19.5801 20.1659 19.8472 20.3601 20.0414L30.7471 30.4285C30.9273 30.6099 31.1726 30.7109 31.4269 30.7109C31.4461 30.7109 31.4652 30.7109 31.4831 30.7096C31.7566 30.693 32.0121 30.5601 32.1808 30.3441C33.8611 28.2 34.1166 25.3953 34.178 22.8691C36.676 20.2344 38.2732 16.6847 38.3333 13.4762Z" fill="#F3F3F1"/>
<path d="M20.3613 20.0414C20.1671 19.8472 20.0649 19.5802 20.0815 19.3054C20.0981 19.032 20.231 18.7777 20.4469 18.6078C22.3751 17.0962 24.8387 16.7384 27.154 16.6374V12.8194V12.1806C27.154 10.7686 26.0104 9.625 24.5984 9.625H23.9596C22.9016 9.625 22.0429 10.4837 22.0429 11.5417C22.0429 12.247 21.4704 12.8194 20.7651 12.8194H15.0151C14.3098 12.8194 13.7373 12.247 13.7373 11.5417C13.7373 10.4837 12.8787 9.625 11.8207 9.625H11.1818C9.76983 9.625 8.62622 10.7686 8.62622 12.1806V35.8194C8.62622 37.2314 9.76983 38.375 11.1818 38.375H24.5984C26.0104 38.375 27.154 37.2314 27.154 35.8194V33.9028V26.8328L20.3613 20.0414ZM24.4106 29.2581C23.7155 29.9532 20.1249 31.0278 20.1249 31.0278C20.1249 31.0278 21.2008 27.4372 21.8947 26.7421C22.5898 26.047 23.7155 26.047 24.4106 26.7421C25.1057 27.4372 25.1057 28.5629 24.4106 29.2581Z" fill="#00CC66"/>
<path d="M16.4514 11.5417C16.4514 10.4837 15.5927 9.625 14.5347 9.625H13.8958H11.8195C12.8775 9.625 13.7361 10.4837 13.7361 11.5417C13.7361 12.247 14.3086 12.8194 15.0139 12.8194H17.7292C17.0238 12.8194 16.4514 12.247 16.4514 11.5417Z" fill="#D5DBE1"/>
<path d="M24.4988 26.8763C24.4643 26.8342 24.449 26.7818 24.4094 26.7422C23.7143 26.047 22.5886 26.047 21.8934 26.7422C21.1996 27.4373 20.125 31.0278 20.125 31.0278C20.125 31.0278 21.8934 30.4975 23.1878 29.9417C23.5328 28.9144 24.0682 27.4526 24.4988 26.8763Z" fill="#D5DBE1"/>
<path d="M25.9976 20.0414C25.8034 19.8472 25.7012 19.5801 25.7178 19.3054C25.7344 19.032 25.8673 18.7777 26.0832 18.6078C28.2516 16.9083 31.0972 16.6655 33.6464 16.608C35.0162 15.3188 36.6377 14.2799 38.3282 13.5644C38.3269 13.5363 38.3333 13.5056 38.3333 13.4762C38.3384 13.2155 38.2362 12.9651 38.0522 12.7811C37.8682 12.5971 37.6165 12.4961 37.3571 12.5C34.1639 12.56 30.6309 14.1406 28.0089 16.608C25.4597 16.6643 22.6141 16.9083 20.4457 18.6078C20.2297 18.7777 20.0969 19.032 20.0802 19.3054C20.0636 19.5801 20.1659 19.8472 20.3601 20.0414L30.7471 30.4285C30.9273 30.6099 31.1726 30.7109 31.4269 30.7109C31.4461 30.7109 31.4652 30.7109 31.4831 30.7096C31.7566 30.693 32.0121 30.5601 32.1808 30.3441C32.8325 29.5123 33.2656 28.5808 33.5608 27.6059L25.9976 20.0414Z" fill="#D5DBE1"/>
<path d="M11.5 35.8194V12.1806C11.5 11.2043 12.0546 10.3648 12.8596 9.9355C12.5593 9.74 12.2041 9.625 11.8194 9.625H11.1806C9.76861 9.625 8.625 10.7686 8.625 12.1806V35.8194C8.625 37.2314 9.76861 38.375 11.1806 38.375H14.0556C12.6436 38.375 11.5 37.2314 11.5 35.8194Z" fill="#00B871"/>
<path d="M20.7639 13.7777H15.0139C13.7808 13.7777 12.7778 12.7747 12.7778 11.5416C12.7778 11.0126 12.3484 10.5833 11.8194 10.5833H11.1805V8.66663H11.8194C13.4052 8.66663 14.6944 9.9559 14.6944 11.5416C14.6944 11.718 14.8375 11.8611 15.0139 11.8611H20.7639C20.9402 11.8611 21.0833 11.718 21.0833 11.5416C21.0833 9.9559 22.3726 8.66663 23.9583 8.66663H24.5972V10.5833H23.9583C23.4293 10.5833 23 11.0126 23 11.5416C23 12.7747 21.9969 13.7777 20.7639 13.7777Z" fill="black"/>
<path d="M24.5972 39.3333H11.1805C9.24213 39.3333 7.66663 37.7578 7.66663 35.8194V12.1805C7.66663 10.2421 9.24213 8.66663 11.1805 8.66663H24.5972C26.5356 8.66663 28.1111 10.2421 28.1111 12.1805V12.8194H26.1944V12.1805C26.1944 11.3001 25.4776 10.5833 24.5972 10.5833H11.1805C10.3001 10.5833 9.58329 11.3001 9.58329 12.1805V35.8194C9.58329 36.6998 10.3001 37.4166 11.1805 37.4166H24.5972C25.4776 37.4166 26.1944 36.6998 26.1944 35.8194V33.9027H28.1111V35.8194C28.1111 37.7578 26.5356 39.3333 24.5972 39.3333Z" fill="black"/>
<path d="M28.4727 27.7413C28.2273 27.7413 27.982 27.6467 27.7954 27.4602L23.3731 23.0378C23.0127 22.6775 22.9974 22.0974 23.3386 21.7191L26.961 17.698C29.6303 14.6134 33.7154 12.5677 37.357 12.5C37.5973 12.4859 37.8682 12.5971 38.0522 12.7811C38.2362 12.9651 38.3384 13.2168 38.3333 13.4762C38.2643 17.1179 36.2185 21.2029 33.1199 23.885L29.1128 27.4947C28.9314 27.6595 28.7014 27.7413 28.4727 27.7413ZM25.3702 22.3261L28.5059 25.4617L31.8511 22.4487C34.2265 20.3928 35.9323 17.3172 36.3297 14.5022C33.5148 14.8984 30.4417 16.6042 28.396 18.9668L25.3702 22.3261Z" fill="black"/>
<path d="M31.4269 30.7108C31.1726 30.7108 30.9273 30.6099 30.7471 30.4285L27.7916 27.4589L29.1499 26.107L31.2621 28.2307C32.1169 26.5581 32.2345 24.474 32.2702 22.4539L34.1869 22.4871C34.1409 25.1078 33.9441 28.0914 32.1795 30.3416C32.0108 30.5575 31.7553 30.6904 31.4818 30.707C31.4652 30.7096 31.4461 30.7108 31.4269 30.7108Z" fill="black"/>
<path d="M23.3296 22.9969L20.3601 20.0414C20.1659 19.8472 20.0636 19.5801 20.0802 19.3054C20.0969 19.032 20.2297 18.7777 20.4457 18.6077C22.6959 16.8444 25.6795 16.6463 28.3002 16.6003L28.3334 18.517C26.3133 18.5528 24.2292 18.6691 22.5579 19.5239L24.6815 21.6373L23.3296 22.9969Z" fill="black"/>
<path d="M20.125 31.9862C19.8745 31.9862 19.6292 31.8878 19.4477 31.705C19.1986 31.4559 19.1066 31.0904 19.2075 30.7518C19.5512 29.6031 20.4355 26.8456 21.2175 26.0636C22.2844 24.9967 24.0196 24.998 25.0878 26.0636C26.1548 27.1319 26.1548 28.8684 25.0878 29.9353C24.3058 30.7173 21.5484 31.6015 20.3997 31.9453C20.3102 31.9734 20.217 31.9862 20.125 31.9862ZM23.1533 27.1804C22.9425 27.1804 22.7329 27.2609 22.5732 27.4206C22.3675 27.6404 21.9969 28.5093 21.6315 29.5226C22.6435 29.1572 23.5123 28.7866 23.7347 28.5809C24.0528 28.2614 24.0528 27.7414 23.7334 27.4219C23.5724 27.2596 23.3628 27.1804 23.1533 27.1804Z" fill="black"/>
<path d="M2.55554 37.4166H43.4444V39.3333H2.55554V37.4166Z" fill="black"/>
</g>
<defs>
<clipPath id="clip0_1_3054">
<rect width="46" height="46" fill="white" transform="translate(0 0.606079)"/>
</clipPath>
</defs>
</svg>
