<svg width="46" height="47" viewBox="0 0 46 47" fill="none" xmlns="http://www.w3.org/2000/svg">
<path d="M5.32449 11.31C5.32449 20.1484 0.746216 26.2178 0.746216 30.4767C0.746216 34.7355 3.19444 43.68 22.7866 43.68C42.3788 43.68 45.2538 31.6471 45.2538 26.9628C45.255 5.02718 5.32449 -4.34277 5.32449 11.31Z" fill="#EFEFEF"/>
<path d="M6.54858 3.16162H7.82636V5.71718H6.54858V3.16162Z" fill="#A4AFC1"/>
<path d="M2.39581 6.995H4.95137V8.27277H2.39581V6.995Z" fill="#A4AFC1"/>
<path d="M36.0972 13.0644H9.90278C9.19744 13.0644 8.625 12.492 8.625 11.7866V10.5089C8.625 9.80352 9.19744 9.23108 9.90278 9.23108H36.0972C36.8026 9.23108 37.375 9.80352 37.375 10.5089V11.7866C37.375 12.492 36.8026 13.0644 36.0972 13.0644Z" fill="#00CC66"/>
<path d="M11.1805 13.0645H34.8194V30.3144H11.1805V13.0645Z" fill="#F3F3F1"/>
<path d="M11.5 11.7866V10.5089C11.5 9.80352 12.0724 9.23108 12.7778 9.23108H9.90278C9.19744 9.23108 8.625 9.80352 8.625 10.5089V11.7866C8.625 12.492 9.19744 13.0644 9.90278 13.0644H12.7778C12.0724 13.0644 11.5 12.492 11.5 11.7866Z" fill="#00B871"/>
<path d="M11.1805 13.0645H14.0555V30.3144H11.1805V13.0645Z" fill="#D5DBE1"/>
<path d="M24.3046 20.7311H31.3056V22.6478H24.3046V20.7311Z" fill="black"/>
<path d="M27.692 26.3392L26.3363 24.9835L29.6304 21.6881L26.3363 18.3927L27.692 17.037L31.6634 21.0096C32.0378 21.384 32.0378 21.9909 31.6634 22.3653L27.692 26.3392Z" fill="black"/>
<path d="M14.6945 20.7311H21.6954V22.6478H14.6945V20.7311Z" fill="black"/>
<path d="M18.308 26.3393L14.3366 22.3667C13.9622 21.9923 13.9622 21.3853 14.3366 21.0109L18.308 17.0383L19.6637 18.3941L16.3696 21.6894L19.6637 24.9848L18.308 26.3393Z" fill="black"/>
<path d="M36.0972 14.0227H9.9028C8.66974 14.0227 7.66669 13.0196 7.66669 11.7866V10.5088C7.66669 9.27576 8.66974 8.27271 9.9028 8.27271H36.0972C37.3303 8.27271 38.3333 9.27576 38.3333 10.5088V11.7866C38.3333 13.0196 37.3303 14.0227 36.0972 14.0227ZM9.9028 10.1894C9.72646 10.1894 9.58335 10.3325 9.58335 10.5088V11.7866C9.58335 11.9629 9.72646 12.106 9.9028 12.106H36.0972C36.2736 12.106 36.4167 11.9629 36.4167 11.7866V10.5088C36.4167 10.3325 36.2736 10.1894 36.0972 10.1894H9.9028Z" fill="black"/>
<path d="M8.94446 29.3561H37.0556V31.2727H8.94446V29.3561Z" fill="black"/>
<path d="M22.0417 30.6339H23.9584V37.9811H22.0417V30.6339Z" fill="black"/>
<path d="M27.6588 38.5509L23 32.2464L18.3412 38.5509L16.799 37.4112L22.2295 30.0639C22.5911 29.5746 23.4102 29.5746 23.7718 30.0639L29.2023 37.4112L27.6588 38.5509Z" fill="black"/>
<path d="M2.55554 37.0227H43.4444V38.9394H2.55554V37.0227Z" fill="black"/>
<path d="M10.2222 13.0645H12.1389V30.3144H10.2222V13.0645Z" fill="black"/>
<path d="M33.8611 13.0645H35.7777V30.3144H33.8611V13.0645Z" fill="black"/>
</svg>
