<svg width="46" height="47" viewBox="0 0 46 47" fill="none" xmlns="http://www.w3.org/2000/svg">
<g clip-path="url(#clip0_1_3146)">
<path d="M35.2963 6.14268C26.4578 6.14268 20.3884 1.56445 16.1295 1.56445C11.8706 1.56445 2.92609 4.01265 2.92609 23.6046C2.92609 43.1966 14.959 46.0715 19.6434 46.0715C41.5792 46.0728 50.9492 6.14268 35.2963 6.14268Z" fill="#EFEFEF"/>
<path d="M21.0833 5.92936C20.0266 5.92936 19.1667 5.06942 19.1667 4.01271C19.1667 2.956 20.0266 2.09607 21.0833 2.09607C22.1399 2.09607 22.9998 2.956 22.9998 4.01271C22.9998 5.06942 22.1399 5.92936 21.0833 5.92936ZM21.0833 3.37383C20.7306 3.37383 20.4444 3.66005 20.4444 4.01271C20.4444 4.36538 20.7306 4.6516 21.0833 4.6516C21.4359 4.6516 21.7221 4.36538 21.7221 4.01271C21.7221 3.66005 21.4359 3.37383 21.0833 3.37383Z" fill="#A4AFC1"/>
<path d="M8.625 9.44324H11.8194V12.6377H8.625V9.44324Z" fill="#00CC66"/>
<path d="M35.1386 26.6932C34.2571 26.6932 33.5417 25.9777 33.5417 25.096C33.5417 24.2143 34.2571 23.4988 35.1386 23.4988C36.02 23.4988 36.7354 24.2143 36.7354 25.096C36.7354 25.9777 36.02 26.6932 35.1386 26.6932Z" fill="#00CC66"/>
<path d="M28.4302 38.1935L27.3007 29.719C27.2164 29.0839 26.6746 28.6099 26.0345 28.6099H19.9665C19.3263 28.6099 18.7846 29.0839 18.7003 29.719L17.5695 38.1935H28.4302Z" fill="#00CC66"/>
<path d="M10.8613 26.6932C9.97955 26.6932 9.26392 25.9777 9.26392 25.096C9.26392 24.2143 9.97955 23.4988 10.8613 23.4988C11.7431 23.4988 12.4587 24.2143 12.4587 25.096C12.4587 25.9777 11.7431 26.6932 10.8613 26.6932Z" fill="#00CC66"/>
<path d="M34.1805 9.44324H37.3757V12.6377H34.1805V9.44324Z" fill="#00CC66"/>
<path d="M25.2448 28.6095L28.4302 23.9457L22.9998 11.3599L17.5695 23.9457L20.7549 28.6095H25.2448Z" fill="#F3F3F1"/>
<path d="M8.625 9.44324H11.5V12.6377H8.625V9.44324Z" fill="#00B871"/>
<path d="M36.417 25.096C36.417 24.8532 36.4796 24.6296 36.5768 24.4239C36.3212 23.8808 35.7781 23.4988 35.1391 23.4988C34.2573 23.4988 33.5417 24.2143 33.5417 25.096C33.5417 25.9777 34.2573 26.6932 35.1391 26.6932C35.7781 26.6932 36.3212 26.3112 36.5768 25.7681C36.4796 25.5624 36.417 25.3388 36.417 25.096Z" fill="#00B871"/>
<path d="M22.8401 28.6099H19.9652C19.3251 28.6099 18.7833 29.0839 18.699 29.719L17.5695 38.1935H20.4444L21.5739 29.719C21.6595 29.0839 22.2 28.6099 22.8401 28.6099Z" fill="#00B871"/>
<path d="M12.1389 25.096C12.1389 24.8532 12.2015 24.6296 12.2986 24.4239C12.0431 23.8808 11.5 23.4988 10.8611 23.4988C9.97947 23.4988 9.26392 24.2143 9.26392 25.096C9.26392 25.9777 9.97947 26.6932 10.8611 26.6932C11.5 26.6932 12.0431 26.3112 12.2986 25.7681C12.2015 25.5624 12.1389 25.3388 12.1389 25.096Z" fill="#00B871"/>
<path d="M34.1805 9.44324H37.0555V12.6377H34.1805V9.44324Z" fill="#00B871"/>
<path d="M24.4375 14.691L23 11.3599L17.5695 23.9457L20.755 28.6095H23.63L20.4445 23.9457L24.4375 14.691Z" fill="#D5DBE1"/>
<path d="M36.0969 23.1797H34.1802C34.1802 17.0143 29.165 11.9989 22.9998 11.9989C16.8346 11.9989 11.8194 17.0143 11.8194 23.1797H9.90277C9.90277 15.9575 15.7779 10.0822 22.9998 10.0822C30.2217 10.0822 36.0969 15.9575 36.0969 23.1797Z" fill="#17161A"/>
<path d="M11.8196 13.5961H8.62505C8.09604 13.5961 7.66669 13.1668 7.66669 12.6378V9.44323C7.66669 8.91421 8.09604 8.48486 8.62505 8.48486H11.8196C12.3486 8.48486 12.778 8.91421 12.778 9.44323V12.6378C12.778 13.1668 12.3486 13.5961 11.8196 13.5961ZM9.58342 11.6794H10.8612V10.4016H9.58342V11.6794Z" fill="#17161A"/>
<path d="M35.139 27.6517C33.7295 27.6517 32.5833 26.5055 32.5833 25.096C32.5833 23.6866 33.7295 22.5404 35.139 22.5404C36.5484 22.5404 37.6946 23.6866 37.6946 25.096C37.6946 26.5055 36.5484 27.6517 35.139 27.6517ZM35.139 24.4571C34.7863 24.4571 34.5 24.7434 34.5 25.096C34.5 25.4487 34.7863 25.735 35.139 25.735C35.4916 25.735 35.7779 25.4487 35.7779 25.096C35.7779 24.7434 35.4916 24.4571 35.139 24.4571Z" fill="#17161A"/>
<path d="M12.1389 10.0822H33.8604V11.9987H12.1389V10.0822Z" fill="#17161A"/>
<path d="M26.036 29.1507L24.4541 28.0697L27.3419 23.8414L23 13.7787L18.6581 23.8414L21.5459 28.0697L19.964 29.1507L16.7785 24.4867C16.5932 24.2158 16.56 23.8683 16.6903 23.5667L22.1209 10.9804C22.4237 10.2788 23.5776 10.2788 23.8804 10.9804L29.3109 23.5667C29.4413 23.8683 29.4081 24.2158 29.2228 24.4867L26.036 29.1507Z" fill="#17161A"/>
<path d="M27.6064 39.2711L26.3503 29.8457C26.3299 29.6872 26.1931 29.5684 26.0334 29.5684H19.9652C19.8055 29.5684 19.6701 29.6872 19.6484 29.8457L18.3923 39.2699L16.4922 39.0168L17.7483 29.5914C17.8978 28.486 18.8497 27.6516 19.9652 27.6516H26.0334C27.1489 27.6516 28.1021 28.486 28.2491 29.5914L29.5064 39.0168L27.6064 39.2711Z" fill="#17161A"/>
<path d="M22.0417 11.9988H23.9586V22.5408H22.0417V11.9988Z" fill="#17161A"/>
<path d="M10.8612 27.6517C9.45175 27.6517 8.30554 26.5055 8.30554 25.096C8.30554 23.6866 9.45175 22.5404 10.8612 22.5404C12.2706 22.5404 13.4168 23.6866 13.4168 25.096C13.4168 26.5055 12.2706 27.6517 10.8612 27.6517ZM10.8612 24.4571C10.5085 24.4571 10.2223 24.7434 10.2223 25.096C10.2223 25.4487 10.5085 25.735 10.8612 25.735C11.2139 25.735 11.5001 25.4487 11.5001 25.096C11.5001 24.7434 11.2139 24.4571 10.8612 24.4571Z" fill="#17161A"/>
<path d="M37.3751 13.5961H34.1806C33.6516 13.5961 33.2222 13.1668 33.2222 12.6378V9.44323C33.2222 8.91421 33.6516 8.48486 34.1806 8.48486H37.3751C37.9042 8.48486 38.3335 8.91421 38.3335 9.44323V12.6378C38.3335 13.1668 37.9042 13.5961 37.3751 13.5961ZM35.139 11.6794H36.4168V10.4016H35.139V11.6794Z" fill="#17161A"/>
<path d="M2.55554 37.5543H43.4451V39.4706H2.55554V37.5543Z" fill="#17161A"/>
</g>
<defs>
<clipPath id="clip0_1_3146">
<rect width="46" height="46" fill="white" transform="translate(0 0.818237)"/>
</clipPath>
</defs>
</svg>
