<svg width="11" height="18" viewBox="0 0 11 18" fill="none" xmlns="http://www.w3.org/2000/svg">
<path d="M0 5.728V12.2C0 13.473 0.505713 14.6939 1.40589 15.5941C2.30606 16.4943 3.52696 17 4.8 17C6.07304 17 7.29394 16.4943 8.19411 15.5941C9.09429 14.6939 9.6 13.473 9.6 12.2V4.2C9.6 3.35131 9.26286 2.53737 8.66274 1.93726C8.06262 1.33714 7.24869 1 6.4 1C5.55131 1 4.73737 1.33714 4.13726 1.93726C3.53714 2.53737 3.2 3.35131 3.2 4.2V11.5456C3.2 11.7557 3.24139 11.9638 3.32179 12.1579C3.4022 12.352 3.52006 12.5284 3.66863 12.677C3.8172 12.8255 3.99359 12.9434 4.18771 13.0238C4.38183 13.1042 4.58989 13.1456 4.8 13.1456V13.1456C5.22435 13.1456 5.63131 12.977 5.93137 12.677C6.23143 12.3769 6.4 11.9699 6.4 11.5456V5.8" stroke="white" stroke-width="1.5" stroke-linecap="round" stroke-linejoin="round"/>
</svg>
